<svg width="79" height="21" viewBox="0 0 79 21" fill="none" xmlns="http://www.w3.org/2000/svg">
<path d="M0.728 0.599999H8.312C10.44 0.599999 12.296 1.016 13.88 1.848C15.464 2.664 16.68 3.816 17.528 5.304C18.376 6.776 18.8 8.472 18.8 10.392C18.8 12.312 18.376 14.016 17.528 15.504C16.68 16.976 15.464 18.12 13.88 18.936C12.296 19.752 10.44 20.16 8.312 20.16H0.728V0.599999ZM8.384 16.296C10.272 16.296 11.752 15.784 12.824 14.76C13.896 13.72 14.432 12.264 14.432 10.392C14.432 8.52 13.896 7.064 12.824 6.024C11.752 4.984 10.272 4.464 8.384 4.464H5.096V16.296H8.384Z" fill="#1463FD"/>
<path d="M29.9193 9.768H27.1353V20.16H22.8633V9.768H20.0793V6.096H22.8633V1.92H27.1353V6.096H29.9193V9.768ZM37.7358 20.496C36.4078 20.496 35.2238 20.176 34.1838 19.536C33.1438 18.912 32.3358 18.04 31.7598 16.92C31.1838 15.8 30.8958 14.536 30.8958 13.128C30.8958 11.72 31.1838 10.456 31.7598 9.336C32.3358 8.216 33.1438 7.344 34.1838 6.72C35.2238 6.08 36.4078 5.76 37.7358 5.76C39.5438 5.76 40.8878 6.352 41.7678 7.536V6.096H46.0398V20.16H41.7678V18.72C40.8878 19.904 39.5438 20.496 37.7358 20.496ZM38.4078 16.848C39.4478 16.848 40.2798 16.504 40.9038 15.816C41.5278 15.112 41.8398 14.216 41.8398 13.128C41.8398 12.04 41.5278 11.152 40.9038 10.464C40.2798 9.76 39.4478 9.408 38.4078 9.408C37.3998 9.408 36.5918 9.76 35.9838 10.464C35.3758 11.152 35.0718 12.04 35.0718 13.128C35.0718 14.216 35.3758 15.112 35.9838 15.816C36.5918 16.504 37.3998 16.848 38.4078 16.848ZM55.1443 5.76C56.3123 5.76 57.3763 5.952 58.3363 6.336C59.2963 6.704 60.0642 7.232 60.6403 7.92C61.2163 8.608 61.5283 9.408 61.5763 10.32H57.4483C57.3843 9.888 57.1283 9.552 56.6803 9.312C56.2483 9.056 55.7123 8.928 55.0723 8.928C54.4323 8.928 53.8963 9.032 53.4643 9.24C53.0483 9.432 52.8403 9.688 52.8403 10.008C52.8403 10.344 53.0883 10.616 53.5843 10.824C54.0803 11.032 54.9443 11.232 56.1763 11.424C58.2083 11.728 59.6563 12.232 60.5203 12.936C61.3843 13.64 61.8163 14.608 61.8163 15.84C61.8163 16.768 61.5203 17.584 60.9283 18.288C60.3363 18.992 59.5363 19.536 58.5283 19.92C57.5203 20.304 56.4163 20.496 55.2163 20.496C54.0003 20.496 52.8963 20.296 51.9043 19.896C50.9283 19.512 50.1443 18.96 49.5523 18.24C48.9763 17.52 48.6643 16.68 48.6163 15.72H52.7443C52.8083 16.168 53.0803 16.536 53.5603 16.824C54.0403 17.096 54.6163 17.232 55.2883 17.232C55.9763 17.232 56.5443 17.12 56.9923 16.896C57.4403 16.672 57.6643 16.4 57.6643 16.08C57.6643 15.744 57.4003 15.464 56.8723 15.24C56.3443 15 55.4803 14.792 54.2803 14.616C52.4403 14.344 51.0483 13.88 50.1043 13.224C49.1763 12.568 48.7123 11.568 48.7123 10.224C48.7123 9.328 48.9923 8.544 49.5523 7.872C50.1283 7.2 50.9043 6.68 51.8803 6.312C52.8563 5.944 53.9443 5.76 55.1443 5.76ZM70.3106 15L68.6066 16.92V20.16H64.3346V-1.43051e-06H68.6066V11.832L73.5746 6.096H78.3266L72.9266 12.096L78.6146 20.16H73.7426L70.3106 15Z" fill="black"/>
</svg>
