<svg width="16" height="16" viewBox="0 0 16 16" fill="none" xmlns="http://www.w3.org/2000/svg">
<path d="M14.4167 4.66699V9.66699H12.9167V4.66699H14.4167ZM0.916747 11.3337V4.66699H2.41675V11.3337H0.916747ZM3.66675 1.91699H11.6667V3.41699H3.66675V1.91699ZM3.66675 12.5837H8.00008V14.0837H3.66675V12.5837ZM0.916747 4.66699C0.916747 3.14821 2.14796 1.91699 3.66675 1.91699V3.41699C2.97639 3.41699 2.41675 3.97664 2.41675 4.66699H0.916747ZM2.41675 11.3337C2.41675 12.024 2.97639 12.5837 3.66675 12.5837V14.0837C2.14796 14.0837 0.916747 12.8524 0.916747 11.3337H2.41675ZM12.9167 4.66699C12.9167 3.97664 12.3571 3.41699 11.6667 3.41699V1.91699C13.1855 1.91699 14.4167 3.14821 14.4167 4.66699H12.9167Z" fill="#AAAAAB"/>
<path d="M11 1.3335V4.00016" stroke="#AAAAAB" stroke-width="1.5" stroke-linecap="round"/>
<path d="M4.3335 1.3335V4.00016" stroke="#AAAAAB" stroke-width="1.5" stroke-linecap="round"/>
<path d="M14.3334 11.3333C14.3334 9.49238 12.841 8 11.0001 8C9.15913 8 7.66675 9.49238 7.66675 11.3333C7.66675 13.1743 9.15913 14.6667 11.0001 14.6667C12.841 14.6667 14.3334 13.1743 14.3334 11.3333Z" stroke="#AAAAAB" stroke-width="1.5"/>
<path d="M11 9.71191V11.3335L12.0811 12.4146" stroke="#AAAAAB" stroke-width="1.5" stroke-linecap="round" stroke-linejoin="round"/>
</svg>
