<svg width="24" height="24" viewBox="0 0 24 24" fill="none" xmlns="http://www.w3.org/2000/svg">
<path d="M16 16.5C16 15.9477 15.5523 15.5 15 15.5C14.4477 15.5 14 15.9477 14 16.5H16ZM14 8.0625C14 8.61478 14.4477 9.0625 15 9.0625C15.5523 9.0625 16 8.61478 16 8.0625H14ZM11 11C10.4477 11 10 11.4477 10 12C10 12.5523 10.4477 13 11 13V11ZM21 12L21.7071 12.7071C22.0976 12.3166 22.0976 11.6834 21.7071 11.2929L21 12ZM19.2071 8.79289C18.8166 8.40237 18.1834 8.40237 17.7929 8.79289C17.4024 9.18342 17.4024 9.81658 17.7929 10.2071L19.2071 8.79289ZM17.7929 13.7929C17.4024 14.1834 17.4024 14.8166 17.7929 15.2071C18.1834 15.5976 18.8166 15.5976 19.2071 15.2071L17.7929 13.7929ZM6 4H13V2H6V4ZM13 20H6V22H13V20ZM5 19V5H3V19H5ZM14 16.5V19H16V16.5H14ZM11 13H21V11H11V13ZM21.7071 11.2929L19.2071 8.79289L17.7929 10.2071L20.2929 12.7071L21.7071 11.2929ZM20.2929 11.2929L17.7929 13.7929L19.2071 15.2071L21.7071 12.7071L20.2929 11.2929ZM6 20C5.44772 20 5 19.5523 5 19H3C3 20.6569 4.34315 22 6 22V20ZM13 22C14.6569 22 16 20.6569 16 19H14C14 19.5523 13.5523 20 13 20V22ZM13 4C13.5523 4 14 4.44772 14 5H16C16 3.34315 14.6569 2 13 2V4ZM6 2C4.34315 2 3 3.34315 3 5H5C5 4.44772 5.44772 4 6 4V2ZM14 5V8.0625H16V5H14Z" fill="black"/>
</svg>
