<svg width="24" height="24" viewBox="0 0 24 24" fill="none" xmlns="http://www.w3.org/2000/svg">
<path d="M6.72223 2.5V6.72222" stroke="#121219" stroke-width="1.5" stroke-linecap="round"/>
<path d="M17.2778 2.5V6.72222" stroke="#121219" stroke-width="1.5" stroke-linecap="round"/>
<path d="M22.25 6.61133V19.5002H20.75V6.61133H22.25ZM1.75 19.5002V6.61133H3.25V19.5002H1.75ZM4.5 3.86133H19.5V5.36133H4.5V3.86133ZM4.5 20.7502H19.5V22.2502H4.5V20.7502ZM1.75 6.61133C1.75 5.09254 2.98122 3.86133 4.5 3.86133V5.36133C3.80964 5.36133 3.25 5.92097 3.25 6.61133H1.75ZM3.25 19.5002C3.25 20.1906 3.80964 20.7502 4.5 20.7502V22.2502C2.98122 22.2502 1.75 21.019 1.75 19.5002H3.25ZM22.25 19.5002C22.25 21.019 21.0188 22.2502 19.5 22.2502V20.7502C20.1904 20.7502 20.75 20.1906 20.75 19.5002H22.25ZM20.75 6.61133C20.75 5.92097 20.1904 5.36133 19.5 5.36133V3.86133C21.0188 3.86133 22.25 5.09254 22.25 6.61133H20.75Z" fill="#121219"/>
<path d="M2.5 9.88867H12H21.5" stroke="#121219" stroke-width="1.5" stroke-linecap="round"/>
</svg>
