<?xml version="1.0" encoding="utf-8"?>
<!-- Generator: Adobe Illustrator 26.2.1, SVG Export Plug-In . SVG Version: 6.00 Build 0)  -->
<svg version="1.1" id="Layer_1" xmlns="http://www.w3.org/2000/svg" xmlns:xlink="http://www.w3.org/1999/xlink" x="0px" y="0px"
	 viewBox="0 0 64 64" style="enable-background:new 0 0 64 64;" xml:space="preserve">
<style type="text/css">
	.st0{fill:#03A9F4;}
</style>
<path class="st0" d="M64,12.2c-2.4,1.1-5,1.7-7.6,2.1c2.7-1.6,4.8-4.2,5.8-7.3c-2.6,1.5-5.4,2.6-8.3,3.2c-5-5.3-13.3-5.6-18.5-0.6
	c-2.6,2.5-4.2,5.9-4.2,9.6c0,1,0.1,2,0.3,3c-10.6-0.5-20.4-5.5-27-13.7c-3.5,6-1.7,13.7,4,17.5c-2.1-0.1-4.1-0.6-5.9-1.6v0.1
	c0,6.2,4.4,11.6,10.5,12.9c-1.1,0.3-2.3,0.4-3.4,0.4c-0.8,0-1.7-0.1-2.5-0.2c1.7,5.3,6.6,9,12.3,9.1C14.8,50.3,9,52.3,3.1,52.3
	c-1.1,0-2.1,0-3.1-0.2C6,56,13,58,20.1,58c24.1,0,37.3-20,37.3-37.3c0-0.6,0-1.1,0-1.7C60,17.1,62.2,14.8,64,12.2z"/>
</svg>
