<svg width="24" height="24" viewBox="0 0 24 24" fill="none" xmlns="http://www.w3.org/2000/svg">
<path d="M2 19C2 19.5523 2.44772 20 3 20C3.55228 20 4 19.5523 4 19H2ZM14 19C14 19.5523 14.4477 20 15 20C15.5523 20 16 19.5523 16 19H14ZM15 10C14.4477 10 14 10.4477 14 11C14 11.5523 14.4477 12 15 12V10ZM15 4C14.4477 4 14 4.44772 14 5C14 5.55228 14.4477 6 15 6V4ZM20 19C20 19.5523 20.4477 20 21 20C21.5523 20 22 19.5523 22 19H20ZM16.5 13C15.9477 13 15.5 13.4477 15.5 14C15.5 14.5523 15.9477 15 16.5 15V13ZM4 19V18H2V19H4ZM7 15H11V13H7V15ZM14 18V19H16V18H14ZM11 8C11 9.10457 10.1046 10 9 10V12C11.2091 12 13 10.2091 13 8H11ZM9 10C7.89543 10 7 9.10457 7 8H5C5 10.2091 6.79086 12 9 12V10ZM7 8C7 6.89543 7.89543 6 9 6V4C6.79086 4 5 5.79086 5 8H7ZM9 6C10.1046 6 11 6.89543 11 8H13C13 5.79086 11.2091 4 9 4V6ZM17 8C17 9.10457 16.1046 10 15 10V12C17.2091 12 19 10.2091 19 8H17ZM15 6C16.1046 6 17 6.89543 17 8H19C19 5.79086 17.2091 4 15 4V6ZM20 18V19H22V18H20ZM16.5 15H17V13H16.5V15ZM22 18C22 15.2386 19.7614 13 17 13V15C18.6569 15 20 16.3431 20 18H22ZM11 15C12.6569 15 14 16.3431 14 18H16C16 15.2386 13.7614 13 11 13V15ZM4 18C4 16.3431 5.34315 15 7 15V13C4.23858 13 2 15.2386 2 18H4Z" fill="#2B2A2C"/>
</svg>
