<svg width="16" height="16" viewBox="0 0 16 16" fill="none" xmlns="http://www.w3.org/2000/svg">
<path d="M14.6666 8.00016C14.6666 4.31826 11.6818 1.3335 7.99992 1.3335C4.31802 1.3335 1.33325 4.31826 1.33325 8.00016C1.33325 11.6821 4.31802 14.6668 7.99992 14.6668C11.6818 14.6668 14.6666 11.6821 14.6666 8.00016Z" stroke="#AAAAAB" stroke-width="1.5"/>
<path d="M10 6.66699C10 7.77156 9.10455 8.66699 8 8.66699C6.89545 8.66699 6 7.77156 6 6.66699C6 5.56242 6.89545 4.66699 8 4.66699C9.10455 4.66699 10 5.56242 10 6.66699Z" stroke="#AAAAAB" stroke-width="1.5"/>
<path d="M12 13.3337C12 11.8609 10.2091 10.667 8 10.667C5.79086 10.667 4 11.8609 4 13.3337" stroke="#AAAAAB" stroke-width="1.5" stroke-linecap="round"/>
</svg>
