<svg width="16" height="16" viewBox="0 0 16 16" fill="none" xmlns="http://www.w3.org/2000/svg">
<path d="M4.48145 1.6665V4.48132" stroke="#AAAAAB" stroke-width="1.5" stroke-linecap="round"/>
<path d="M11.5186 1.6665V4.48132" stroke="#AAAAAB" stroke-width="1.5" stroke-linecap="round"/>
<path d="M15.0835 5.07373V12.333H13.5835V5.07373H15.0835ZM0.916829 12.333V5.07373H2.41683V12.333H0.916829ZM3.66683 2.32373H12.3335V3.82373H3.66683V2.32373ZM3.66683 13.583H12.3335V15.083H3.66683V13.583ZM0.916829 5.07373C0.916829 3.55495 2.14805 2.32373 3.66683 2.32373V3.82373C2.97647 3.82373 2.41683 4.38338 2.41683 5.07373H0.916829ZM2.41683 12.333C2.41683 13.0233 2.97647 13.583 3.66683 13.583V15.083C2.14805 15.083 0.916829 13.8518 0.916829 12.333H2.41683ZM15.0835 12.333C15.0835 13.8518 13.8523 15.083 12.3335 15.083V13.583C13.0239 13.583 13.5835 13.0233 13.5835 12.333H15.0835ZM13.5835 5.07373C13.5835 4.38338 13.0239 3.82373 12.3335 3.82373V2.32373C13.8523 2.32373 15.0835 3.55495 15.0835 5.07373H13.5835Z" fill="#AAAAAB"/>
<path d="M1.66675 6.59229H8.00008H14.3334" stroke="#AAAAAB" stroke-width="1.5" stroke-linecap="round"/>
</svg>
