<svg width="16" height="16" viewBox="0 0 16 16" fill="none" xmlns="http://www.w3.org/2000/svg">
<path d="M14 4.6665H12M2 4.6665H8" stroke="#AAAAAB" stroke-width="1.5" stroke-linecap="round"/>
<path d="M10 6.6665C11.1046 6.6665 12 5.77107 12 4.6665C12 3.56193 11.1046 2.6665 10 2.6665C8.89543 2.6665 8 3.56193 8 4.6665C8 5.77107 8.89543 6.6665 10 6.6665Z" stroke="#AAAAAB" stroke-width="1.5"/>
<path d="M14 11.333L8 11.333M2 11.333H4" stroke="#AAAAAB" stroke-width="1.5" stroke-linecap="round"/>
<path d="M6 13.333C7.10457 13.333 8 12.4376 8 11.333C8 10.2284 7.10457 9.33301 6 9.33301C4.89543 9.33301 4 10.2284 4 11.333C4 12.4376 4.89543 13.333 6 13.333Z" stroke="#AAAAAB" stroke-width="1.5"/>
</svg>
