<svg width="24" height="24" viewBox="0 0 24 24" fill="none" xmlns="http://www.w3.org/2000/svg">
<path d="M7 11C6.44772 11 6 11.4477 6 12C6 12.5523 6.44772 13 7 13L7 11ZM17 13C17.5523 13 18 12.5523 18 12C18 11.4477 17.5523 11 17 11V13ZM13 7C13 6.44772 12.5523 6 12 6C11.4477 6 11 6.44772 11 7H13ZM11 17C11 17.5523 11.4477 18 12 18C12.5523 18 13 17.5523 13 17H11ZM7 13L12 13V11L7 11L7 13ZM12 13L17 13V11L12 11V13ZM11 7V12H13V7H11ZM11 12L11 17H13L13 12H11Z" fill="#1463FD"/>
<circle cx="12" cy="12" r="9" stroke="#1463FD" stroke-width="2" stroke-linecap="round" stroke-linejoin="round"/>
</svg>
