<svg width="21" height="20" viewBox="0 0 21 20" fill="none" xmlns="http://www.w3.org/2000/svg">
<path d="M6.5 9.00016C5.94772 9.00016 5.5 9.44788 5.5 10.0002C5.5 10.5524 5.94772 11.0002 6.5 11.0002L6.5 9.00016ZM14.8333 11.0002C15.3856 11.0002 15.8333 10.5524 15.8333 10.0002C15.8333 9.44788 15.3856 9.00016 14.8333 9.00016V11.0002ZM11.6667 5.8335C11.6667 5.28121 11.219 4.8335 10.6667 4.8335C10.1144 4.8335 9.66667 5.28121 9.66667 5.8335H11.6667ZM9.66667 14.1668C9.66667 14.7191 10.1144 15.1668 10.6667 15.1668C11.219 15.1668 11.6667 14.7191 11.6667 14.1668H9.66667ZM6.5 11.0002L10.6667 11.0002V9.00016L6.5 9.00016L6.5 11.0002ZM10.6667 11.0002L14.8333 11.0002V9.00016L10.6667 9.00016V11.0002ZM9.66667 5.8335V10.0002H11.6667V5.8335H9.66667ZM9.66667 10.0002L9.66667 14.1668H11.6667L11.6667 10.0002H9.66667Z" fill="#AAAAAB"/>
</svg>
